<mxfile host="app.diagrams.net" modified="2023-10-17T11:12:15.334Z" agent="Mozilla/5.0 (Macintosh; Intel Mac OS X 10_15_7) AppleWebKit/537.36 (KHTML, like Gecko) Chrome/117.0.0.0 Safari/537.36" version="22.0.4" etag="QvtsewNRPInfbOv3ZqzA" type="github">
  <diagram name="第 1 页" id="_7Bydu7JTRQZ7jcOybuY">
    <mxGraphModel>
      <root>
        <mxCell id="0" />
        <mxCell id="1" parent="0" />
      </root>
    </mxGraphModel>
  </diagram>
</mxfile>
